# xmcd CD database file
#
# Track frame offsets:
#	150
#	19728
#	34787
#	54671
#	69871
#	81123
#	97783
#	113913
#	130119
#	147376
#	163412
#	181885
#	202056
#	221386
#	240936
#	257535
#	273494
#	291937
#
# Disc length: 4069 seconds
#
# Revision: 1
# Processed by: cddbd v1.4PL0 Copyright (c) Steve Scherf et al.
# Submitted via: CDex 1.40Beta8
#
DISCID=000fe312
DTITLE=Carlos Baute - Lo Mejor de lo Mejor
DYEAR=2002
DGENRE=Blues
TTITLE0=Fiesta de Calipsos
TTITLE1=El Gavilan
TTITLE2=Viva Venezuela
TTITLE3=Traigo Polvo del Camino
TTITLE4=Guayana
TTITLE5=Mueve, mueve
TTITLE6=Yo me quedo en Venezuela
TTITLE7=Mi Medicina
TTITLE8=Esencia
TTITLE9=Te Quise Olvida (Sangueo)
TTITLE10=Quitame la Mano
TTITLE11=Nunca te Engañe
TTITLE12=Quien la Tumbo
TTITLE13=Te Quise Olvidar
TTITLE14=En Este Mundo
TTITLE15=Yo Naci para Quererte
TTITLE16=Mueve, Mueve (REMIX)
TTITLE17=Solito con las Estrellas
EXTD=YEAR: 2002 ID3G: 0
EXTT0=
EXTT1=
EXTT2=
EXTT3=
EXTT4=
EXTT5=
EXTT6=
EXTT7=
EXTT8=
EXTT9=
EXTT10=
EXTT11=
EXTT12=
EXTT13=
EXTT14=
EXTT15=
EXTT16=
EXTT17=
PLAYORDER=
